<svg id="Capa_1" enable-background="new 0 0 512 512" height="512" viewBox="0 0 512 512" width="512" xmlns="http://www.w3.org/2000/svg"><g><g><path d="m486.753 336.23c-4.122 0-7.904-2.616-9.36-6.472-1.49-3.947-.266-8.591 3.015-11.255 3.251-2.64 7.88-2.984 11.48-.842 3.581 2.131 5.49 6.442 4.665 10.529-.934 4.619-5.081 8.04-9.8 8.04z"/><path d="m308.419 435.189c-63.315 0-114.826-51.214-114.826-114.166 0-62.951 51.511-114.165 114.826-114.165s114.827 51.214 114.827 114.165-51.512 114.166-114.827 114.166zm0-208.332c-52.287 0-94.826 42.243-94.826 94.165 0 51.923 42.539 94.166 94.826 94.166 52.288 0 94.827-42.243 94.827-94.166 0-51.922-42.539-94.165-94.827-94.165z"/><path d="m484.129 356.877c-5.366-1.305-10.775 1.986-12.081 7.351-18.309 75.23-85.596 127.772-163.629 127.772-92.821 0-168.336-75.011-168.336-167.212 0-60.449 22.579-136.087 60.398-202.332 35.532-62.24 77.9-102.456 107.938-102.456 27.544 0 64.177 32.018 97.991 85.648 34.586 54.854 59.903 122.701 67.722 181.49.728 5.474 5.756 9.324 11.231 8.594 5.475-.728 9.322-5.756 8.594-11.231-8.18-61.503-34.583-132.351-70.629-189.52-38.058-60.362-79.941-94.981-114.909-94.981-16.697 0-34.588 7.55-53.331 22.478-19.204-15.501-35.285-22.478-51.495-22.478-20.315 0-42.398 11.177-65.634 33.22-20.536 19.481-41.171 46.91-59.673 79.32-39.467 69.131-63.029 148.477-63.029 212.248-.001 103.229 84.487 187.212 188.336 187.212 17.653 0 33.608-2.366 51.463-7.652 16.925 4.979 34.836 7.652 53.363 7.652 43.098 0 83.656-14.083 117.292-40.728 32.65-25.865 56.008-62.2 65.77-102.314 1.306-5.366-1.986-10.775-7.352-12.081zm-280.536 135.123c-92.821 0-168.336-75.011-168.336-167.212 0-60.449 22.579-136.087 60.398-202.332 35.532-62.24 77.9-102.456 107.938-102.456 10.736 0 22.17 4.983 36.337 15.979-19.588 19.275-39.172 45.652-56.818 76.56-39.467 69.131-63.029 148.477-63.029 212.248 0 72.181 41.308 134.953 101.66 166.182-5.955.698-11.938 1.031-18.15 1.031z"/></g></g></svg>