<svg width="31" height="31" viewBox="0 0 31 31" xmlns="http://www.w3.org/2000/svg">
<path d="M27.3338 10.2081C27.123 9.81229 26.7135 9.56641 26.2651 9.56641H22.8254C22.5382 7.95132 21.1248 6.7207 19.4285 6.7207C17.7321 6.7207 16.3187 7.95132 16.0316 9.56641H12.5468C12.8201 9.14815 12.9797 8.64912 12.9797 8.11328C12.9797 6.64429 11.7846 5.44922 10.3156 5.44922C8.84664 5.44922 7.65156 6.64429 7.65156 8.11328C7.65156 8.64912 7.81117 9.14815 8.08448 9.56641H5.24325C4.79478 9.56641 4.3853 9.81229 4.17448 10.2081C3.96371 10.6039 3.98818 11.081 4.23842 11.4531L12.3636 23.5356V30.3945C12.3636 30.5987 12.4664 30.7891 12.6372 30.9009C12.7373 30.9665 12.8529 31 12.9691 31C13.0511 31 13.1334 30.9833 13.2108 30.9496L18.7811 28.5239C19.002 28.4277 19.1448 28.2098 19.1448 27.9688V23.5355L27.2699 11.453C27.5201 11.081 27.5447 10.6039 27.3338 10.2081ZM19.4285 7.93164C20.454 7.93164 21.32 8.62448 21.5849 9.56641H17.2721C17.5369 8.62448 18.4031 7.93164 19.4285 7.93164ZM10.3157 6.66016C11.1169 6.66016 11.7688 7.31206 11.7688 8.11328C11.7688 8.9145 11.1169 9.56641 10.3157 9.56641C9.51447 9.56641 8.86256 8.9145 8.86256 8.11328C8.86256 7.31206 9.51447 6.66016 10.3157 6.66016ZM18.0369 23.013C17.9697 23.1129 17.9338 23.2305 17.9338 23.3509V27.5721L13.5744 29.4705V23.9563H15.7618C16.0962 23.9563 16.3673 23.6853 16.3673 23.3509C16.3673 23.0165 16.0962 22.7454 15.7618 22.7454H13.2914L7.19783 13.6836H19.4285C19.7629 13.6836 20.0339 13.4125 20.0339 13.0781C20.0339 12.7437 19.7629 12.4727 19.4285 12.4727H6.38353L5.24349 10.7773H26.265L18.0369 23.013Z" fill="black"/>
<path d="M17.8204 0C16.3514 0 15.1564 1.19507 15.1564 2.66406C15.1564 4.13305 16.3515 5.32812 17.8204 5.32812C19.2894 5.32812 20.4845 4.13305 20.4845 2.66406C20.4845 1.19507 19.2894 0 17.8204 0ZM17.8204 4.11719C17.0192 4.11719 16.3673 3.46528 16.3673 2.66406C16.3673 1.86285 17.0192 1.21094 17.8204 1.21094C18.6216 1.21094 19.2736 1.86285 19.2736 2.66406C19.2736 3.46528 18.6216 4.11719 17.8204 4.11719Z" fill="black"/>
<path d="M24.2913 2.92639C23.9569 2.92639 23.6858 3.19746 23.6858 3.53186V6.97298C23.6858 7.30744 23.9569 7.57851 24.2913 7.57851C24.6257 7.57851 24.8967 7.30744 24.8967 6.97304V3.53186C24.8967 3.19746 24.6257 2.92639 24.2913 2.92639Z" fill="black"/>
<path d="M24.7193 1.11588C24.6067 1.00326 24.4505 0.938477 24.2913 0.938477C24.132 0.938477 23.9758 1.00326 23.8632 1.11588C23.7506 1.2285 23.6858 1.38471 23.6858 1.54395C23.6858 1.70318 23.7506 1.85939 23.8632 1.97201C23.9758 2.08463 24.132 2.14941 24.2913 2.14941C24.4505 2.14941 24.6067 2.08463 24.7193 1.97201C24.8319 1.85939 24.8967 1.70318 24.8967 1.54395C24.8967 1.38471 24.8319 1.2285 24.7193 1.11588Z" fill="black"/>
<path d="M12.3743 0.772217C12.0399 0.772217 11.7688 1.04329 11.7688 1.37769V3.86011C11.7688 4.19451 12.0399 4.46558 12.3743 4.46558C12.7087 4.46558 12.9797 4.19451 12.9797 3.86011V1.37769C12.9797 1.04329 12.7087 0.772217 12.3743 0.772217Z" fill="black"/>
<path d="M4.12903 0C3.79463 0 3.52356 0.271068 3.52356 0.605469V4.55119C3.52356 4.88559 3.79463 5.15666 4.12903 5.15666C4.46343 5.15666 4.7345 4.88559 4.7345 4.55119V0.605469C4.7345 0.271068 4.46343 0 4.12903 0Z" fill="black"/>
<path d="M4.5571 6.39371C4.44448 6.28049 4.28827 6.21631 4.12903 6.21631C3.96979 6.21631 3.81358 6.28049 3.70096 6.39371C3.58834 6.50633 3.52356 6.66193 3.52356 6.82178C3.52356 6.98102 3.58834 7.13723 3.70096 7.24984C3.81358 7.36246 3.96979 7.42725 4.12903 7.42725C4.28827 7.42725 4.44448 7.36246 4.5571 7.24984C4.66971 7.13723 4.7345 6.98102 4.7345 6.82178C4.7345 6.66193 4.66971 6.50633 4.5571 6.39371Z" fill="black"/>
<path d="M22.5487 12.6501C22.4361 12.5374 22.2798 12.4727 22.1206 12.4727C21.9608 12.4727 21.8046 12.5374 21.6925 12.6501C21.5793 12.7627 21.5151 12.9189 21.5151 13.0781C21.5151 13.2374 21.5793 13.3936 21.6925 13.5062C21.8052 13.6188 21.9608 13.6836 22.1206 13.6836C22.2798 13.6836 22.4354 13.6188 22.5487 13.5062C22.6613 13.3936 22.7261 13.2374 22.7261 13.0781C22.7261 12.9189 22.6613 12.7627 22.5487 12.6501Z" fill="black"/>
</svg>
